<svg width="80" height="80" viewBox="0 0 80 80" fill="none" xmlns="http://www.w3.org/2000/svg">
<circle opacity="0.88" cx="40" cy="40" r="40" fill="#FF6700"/>
<g clip-path="url(#clip0_44_24)">
<path d="M37 33H35C34.4477 33 34 33.4477 34 34V46C34 46.5523 34.4477 47 35 47H37C37.5523 47 38 46.5523 38 46V34C38 33.4477 37.5523 33 37 33Z" fill="white" stroke="white" stroke-width="1.5" stroke-linecap="round" stroke-linejoin="round"/>
<path d="M45 33H43C42.4477 33 42 33.4477 42 34V46C42 46.5523 42.4477 47 43 47H45C45.5523 47 46 46.5523 46 46V34C46 33.4477 45.5523 33 45 33Z" fill="white" stroke="white" stroke-width="1.5" stroke-linecap="round" stroke-linejoin="round"/>
</g>
<defs>
<clipPath id="clip0_44_24">
<rect width="24" height="24" fill="white" transform="translate(28 28)"/>
</clipPath>
</defs>
</svg>
